<svg width="30" height="30" fill="none" xmlns="http://www.w3.org/2000/svg"><circle cx="15" cy="15" r="13" fill="#fff"/><path fill-rule="evenodd" clip-rule="evenodd" d="M0 15C0 6.716 6.716 0 15 0c8.284 0 15 6.716 15 15 0 8.284-6.716 15-15 15-8.284 0-15-6.716-15-15Zm19.47 9.063a4.557 4.557 0 0 0 4.553-4.552V10.57a4.557 4.557 0 0 0-4.552-4.552h-8.942a4.557 4.557 0 0 0-4.552 4.552v8.941a4.557 4.557 0 0 0 4.552 4.552h8.942Zm0-16.082h-8.94A2.591 2.591 0 0 0 7.94 10.57v8.941a2.592 2.592 0 0 0 2.588 2.589h8.942a2.592 2.592 0 0 0 2.588-2.589V10.57a2.591 2.591 0 0 0-2.588-2.589ZM15 19.688a4.653 4.653 0 0 1-4.648-4.648A4.653 4.653 0 0 1 15 10.393a4.653 4.653 0 0 1 4.648 4.647A4.653 4.653 0 0 1 15 19.688Zm4.797-8.334a1.1 1.1 0 1 1 1.1-1.1c0 .607-.493 1.1-1.1 1.1ZM15 12.357a2.687 2.687 0 0 0-2.684 2.683A2.688 2.688 0 0 0 15 17.724a2.687 2.687 0 0 0 2.683-2.684A2.687 2.687 0 0 0 15 12.357Z" fill="#3E5ABE"/></svg>