<svg width="30" height="30" fill="none" xmlns="http://www.w3.org/2000/svg"><path d="M15 30c8.284 0 15-6.716 15-15 0-8.284-6.716-15-15-15C6.716 0 0 6.716 0 15c0 8.284 6.716 15 15 15Z" fill="#3E5ABE"/><path d="M16.7 18.353a8.214 8.214 0 0 0 2.549-1.055 1.286 1.286 0 0 0-1.37-2.178 5.572 5.572 0 0 1-5.908 0 1.287 1.287 0 0 0-1.37 2.178 8.213 8.213 0 0 0 2.547 1.055l-2.45 2.453a1.284 1.284 0 1 0 1.817 1.817l2.41-2.41 2.411 2.41a1.284 1.284 0 1 0 1.817-1.817l-2.452-2.453Zm-1.774-9.781c1.002 0 1.817.815 1.817 1.817a1.818 1.818 0 0 1-3.635 0 1.82 1.82 0 0 1 1.818-1.817Zm0 6.202a4.391 4.391 0 0 0 4.387-4.385A4.392 4.392 0 0 0 14.926 6a4.392 4.392 0 0 0-4.387 4.387 4.392 4.392 0 0 0 4.387 4.387Z" fill="#fff"/></svg>