<svg width="30" height="30" fill="none" xmlns="http://www.w3.org/2000/svg"><path d="M15 30c8.284 0 15-6.716 15-15 0-8.284-6.716-15-15-15C6.716 0 0 6.716 0 15c0 8.284 6.716 15 15 15Z" fill="#fff"/><path d="M15 0C6.714 0 0 6.714 0 15s6.714 15 15 15 15-6.715 15-15S23.285 0 15 0Zm7.372 10.283L19.91 21.88c-.17.826-.668 1.02-1.36.639l-3.75-2.771-1.799 1.752c-.21.205-.375.375-.75.375-.486 0-.404-.182-.568-.645l-1.278-4.196-3.709-1.154c-.802-.245-.808-.796.182-1.19l14.45-5.577c.655-.3 1.294.158 1.043 1.171Z" fill="#3E5ABE"/></svg>