<svg width="182" height="150" fill="none" xmlns="http://www.w3.org/2000/svg"><path d="M12.975 95.726c1.104.328 1.95.862 2.536 1.604.586.742.88 1.657.88 2.744 0 1.604-.613 2.855-1.838 3.752-1.208.897-2.941 1.346-5.202 1.346H.423V87.056H8.86c2.105 0 3.744.406 4.917 1.216 1.173.811 1.76 1.967 1.76 3.468 0 .898-.225 1.691-.673 2.381-.449.673-1.079 1.208-1.89 1.605ZM4.59 94.56h3.907c.915 0 1.605-.181 2.07-.543.467-.38.7-.932.7-1.657 0-.707-.242-1.25-.725-1.63-.466-.38-1.147-.57-2.045-.57H4.59v4.4Zm4.606 7.505c1.967 0 2.95-.776 2.95-2.329 0-1.5-.983-2.251-2.95-2.251H4.59v4.58h4.606ZM27.755 86.746c1.673 0 3.131.327 4.373.983 1.243.656 2.209 1.622 2.899 2.898.69 1.277 1.035 2.821 1.035 4.633v9.912H31.87v-4.348h-8.282v4.348h-4.14V95.26c0-1.812.345-3.356 1.035-4.633.69-1.276 1.656-2.242 2.898-2.898 1.242-.656 2.7-.983 4.374-.983ZM31.87 97.46v-2.588c0-1.501-.371-2.631-1.113-3.39-.742-.777-1.751-1.165-3.028-1.165-1.294 0-2.312.388-3.054 1.165-.724.759-1.087 1.889-1.087 3.39v2.588h8.282ZM47.835 86.875c2.536 0 4.511.621 5.926 1.863 1.432 1.243 2.148 2.985 2.148 5.228 0 2.122-.647 3.787-1.941 4.995-1.277 1.207-3.071 1.811-5.383 1.811-.759 0-1.5-.077-2.226-.233-.707-.155-1.475-.414-2.303-.776v5.409h-4.14V94.458c0-2.433.672-4.305 2.018-5.616 1.363-1.311 3.33-1.967 5.9-1.967Zm.026 10.74c1.224 0 2.165-.31 2.82-.932.673-.62 1.01-1.5 1.01-2.64 0-1.155-.337-2.053-1.01-2.69-.655-.64-1.57-.958-2.743-.958-1.225 0-2.182.353-2.873 1.06-.672.708-1.009 1.7-1.009 2.977v2.018a6.413 6.413 0 0 0 1.76.854c.673.207 1.354.311 2.044.311ZM74.875 87.056v18.116h-4.063v-2.2c-1.242 1.674-3.07 2.51-5.486 2.51-2.14 0-3.813-.673-5.02-2.018-1.191-1.363-1.787-3.296-1.787-5.797v-10.61h4.193v10.48c0 1.45.336 2.545 1.01 3.287.69.725 1.62 1.087 2.794 1.087 1.26 0 2.269-.388 3.028-1.165.76-.793 1.139-1.958 1.139-3.493V87.056h4.192ZM87.323 86.746c1.674 0 3.131.327 4.374.983 1.242.656 2.208 1.622 2.898 2.898.69 1.277 1.035 2.821 1.035 4.633v9.912h-4.192v-4.348h-8.282v4.348h-4.14V95.26c0-1.812.345-3.356 1.035-4.633.69-1.276 1.656-2.242 2.898-2.898 1.243-.656 2.7-.983 4.374-.983Zm4.115 10.714v-2.588c0-1.501-.371-2.631-1.113-3.39-.742-.777-1.751-1.165-3.028-1.165-1.294 0-2.312.388-3.054 1.165-.724.759-1.087 1.889-1.087 3.39v2.588h8.282ZM113.232 92.129a13.903 13.903 0 0 0-4.995-1.734v14.777h-4.192V90.395a14.146 14.146 0 0 0-5.021 1.734L97.6 88.996a15.477 15.477 0 0 1 4.037-1.682 17.59 17.59 0 0 1 4.477-.57c1.553 0 3.054.19 4.503.57a15 15 0 0 1 4.037 1.682l-1.423 3.132ZM148.664 86.875c2.537 0 4.512.621 5.927 1.863 1.432 1.243 2.148 2.985 2.148 5.228 0 2.122-.647 3.787-1.941 4.995-1.277 1.207-3.071 1.811-5.383 1.811-.759 0-1.501-.077-2.226-.233-.707-.155-1.475-.414-2.303-.776v5.409h-4.141V94.458c0-2.433.673-4.305 2.019-5.616 1.363-1.311 3.33-1.967 5.9-1.967Zm.026 10.74c1.225 0 2.165-.31 2.821-.932.673-.62 1.009-1.5 1.009-2.64 0-1.155-.336-2.053-1.009-2.69-.656-.64-1.57-.958-2.743-.958-1.225 0-2.183.353-2.873 1.06-.673.708-1.009 1.7-1.009 2.977v2.018a6.414 6.414 0 0 0 1.76.854c.673.207 1.354.311 2.044.311ZM168.15 92.517c2.174 0 3.891.56 5.15 1.682 1.277 1.121 1.915 2.691 1.915 4.71 0 2.105-.707 3.735-2.122 4.891-1.415 1.156-3.425 1.734-6.03 1.734-2.571 0-4.52-.578-5.849-1.734-1.328-1.156-1.992-2.855-1.992-5.098V87.056h4.14v6.522c1.639-.708 3.235-1.061 4.788-1.061Zm13.483-5.46v18.115h-4.141V87.056h4.141Zm-14.389 15.216c1.191 0 2.114-.284 2.769-.854.656-.569.984-1.363.984-2.38 0-1.053-.354-1.864-1.061-2.433-.69-.587-1.613-.88-2.769-.88a6.67 6.67 0 0 0-1.967.31 6.583 6.583 0 0 0-1.838.829v1.733c0 1.174.337 2.079 1.01 2.718.672.638 1.63.957 2.872.957Z" fill="#9BA4AF"/><path d="M29.137 46.126c3.26 0 6.195.73 8.804 2.189 2.64 1.46 4.705 3.478 6.196 6.056 1.49 2.546 2.236 5.419 2.236 8.617 0 3.2-.746 6.087-2.236 8.665-1.491 2.546-3.556 4.55-6.196 6.01-2.609 1.459-5.543 2.189-8.804 2.189-2.92 0-5.59-.575-8.012-1.724-2.423-1.18-4.426-2.81-6.01-4.891-1.552-2.112-2.546-4.519-2.981-7.22H7.848v13.276h-7.5V46.684h7.5v12.81h4.38c.496-2.608 1.52-4.922 3.074-6.94 1.584-2.05 3.571-3.634 5.962-4.752 2.392-1.117 5.016-1.676 7.873-1.676Zm0 27.297c1.801 0 3.431-.435 4.891-1.304 1.46-.87 2.609-2.096 3.447-3.68.839-1.584 1.258-3.4 1.258-5.45 0-2.05-.42-3.867-1.258-5.45-.838-1.584-1.987-2.811-3.447-3.68-1.46-.87-3.09-1.305-4.891-1.305-1.801 0-3.432.435-4.891 1.304-1.46.87-2.61 2.097-3.447 3.68-.839 1.584-1.258 3.4-1.258 5.45 0 2.05.419 3.867 1.258 5.45.838 1.585 1.987 2.811 3.447 3.68 1.46.87 3.09 1.305 4.89 1.305ZM77.968 46.684v32.609H70.42v-13.37H55.608v13.37h-7.546V46.684h7.546v12.857h14.813V46.685h7.547ZM110.92 46.684v32.609h-7.314v-3.96c-2.236 3.012-5.527 4.519-9.875 4.519-3.851 0-6.863-1.212-9.037-3.634-2.143-2.453-3.215-5.931-3.215-10.434v-19.1h7.547v18.867c0 2.608.605 4.58 1.817 5.916 1.242 1.304 2.919 1.956 5.03 1.956 2.268 0 4.084-.699 5.451-2.096 1.366-1.429 2.049-3.525 2.049-6.289V46.685h7.547ZM181.651 46.684v32.609h-7.546v-13.37h-14.813v13.37h-7.547V46.684h7.547v12.857h14.813V46.685h7.546Z" fill="#fff"/><path fill-rule="evenodd" clip-rule="evenodd" d="M131.792 75.41c6.432 0 11.646-5.213 11.646-11.645 0-6.432-5.214-11.646-11.646-11.646s-11.646 5.214-11.646 11.646 5.214 11.646 11.646 11.646Zm0 6.47c10.005 0 18.116-8.11 18.116-18.115 0-10.005-8.111-18.116-18.116-18.116-10.005 0-18.115 8.111-18.115 18.116 0 10.005 8.11 18.116 18.115 18.116ZM126.336 99.61a3.796 3.796 0 1 0 0-7.592 3.796 3.796 0 0 0 0 7.591Zm0 5.422a9.218 9.218 0 0 0 9.219-9.219 9.219 9.219 0 0 0-9.219-9.22 9.219 9.219 0 0 0-9.219 9.22 9.218 9.218 0 0 0 9.219 9.219Z" fill="#3E5ABE"/><path fill-rule="evenodd" clip-rule="evenodd" d="m117.661 64.335 3.622 32.536-3.879.165-3.621-32.536 3.878-.165Zm30.669 6.742-13.5 28-3.547-1.577 13.5-28 3.547 1.577Z" fill="#3E5ABE"/><g opacity=".5" fill="#9BA4AF"><path d="m28.76 29.593-1.16 1.555 4.572 6.933h6.624l-4.43-6.72a80.976 80.976 0 0 1 8.796-9.586l10.953 6.069 9.102-5.616-.714-12.365c3.945-1.447 8.118-2.684 12.393-3.512l6.833 11.267 1.738-.265c2.8-.247 5.285-.454 7.454-.257l1.885.171L98.46 5.881c4.544.566 8.791 1.654 12.885 3.065l.435 12.826 9.437 5.77 10.656-6.863a84.211 84.211 0 0 1 9.998 9.103l-3.259 8.3h5.941l3.724-9.48-1.147-1.271a90.385 90.385 0 0 0-13.481-12.245l-1.536-1.14-10.972 7.067-3.934-2.405-.461-13.584-1.742-.643C109.485 2.34 103.604.763 97.09.17L95.205 0l-5.706 11.492c-1.625-.024-3.29.08-4.888.212L77.67.262l-1.844.304c-6.07 1-11.906 2.786-17.207 4.853l-1.871.73.756 13.104-3.54 2.185-11.57-6.41-1.463 1.302A87.134 87.134 0 0 0 28.76 29.593ZM140.846 111.866h6.624l4.606 6.986-1.16 1.556a87.1 87.1 0 0 1-12.172 13.262l-1.464 1.302-11.569-6.41-3.541 2.185.757 13.104-1.871.73c-5.301 2.067-11.137 3.854-17.208 4.853l-1.844.304-6.939-11.442c-1.599.131-3.264.236-4.888.212L84.47 150l-1.885-.171c-6.514-.592-12.395-2.17-17.914-4.21l-1.742-.643-.461-13.584-3.934-2.405-10.972 7.067-1.537-1.139a90.417 90.417 0 0 1-13.48-12.246l-1.261-1.397 4.67-9.406h6.175l-4.209 8.476a84.216 84.216 0 0 0 9.882 8.979l10.656-6.863 9.436 5.77.435 12.826c4.095 1.411 8.342 2.499 12.886 3.065l5.654-11.386 1.885.171c2.192.199 4.704-.014 7.54-.265l1.715-.152 6.769 11.162c4.276-.828 8.449-2.065 12.394-3.512l-.714-12.365 9.101-5.615 10.953 6.068a80.95 80.95 0 0 0 8.797-9.587l-4.464-6.772Z"/></g></svg>