<svg width="202" height="170" viewBox="0 0 202 170" fill="none" xmlns="http://www.w3.org/2000/svg">
<path d="M22.9746 105.726C24.0788 106.054 24.9242 106.589 25.5108 107.33C26.0974 108.072 26.3907 108.987 26.3907 110.074C26.3907 111.678 25.7782 112.929 24.5533 113.826C23.3456 114.723 21.6116 115.172 19.3515 115.172H10.4231V97.0563H18.8598C20.9647 97.0563 22.6037 97.4618 23.7769 98.2726C24.9501 99.0835 25.5367 100.239 25.5367 101.74C25.5367 102.638 25.3124 103.431 24.8638 104.121C24.4153 104.794 23.7855 105.329 22.9746 105.726ZM14.5897 104.561H18.4975C19.4119 104.561 20.102 104.38 20.5678 104.018C21.0337 103.638 21.2666 103.086 21.2666 102.362C21.2666 101.654 21.025 101.111 20.542 100.731C20.0761 100.352 19.3946 100.162 18.4975 100.162H14.5897V104.561ZM19.1962 112.066C21.1631 112.066 22.1465 111.29 22.1465 109.737C22.1465 108.236 21.1631 107.486 19.1962 107.486H14.5897V112.066H19.1962Z" fill="#9BA4AF"/>
<path d="M37.7548 96.7458C39.4284 96.7458 40.8862 97.0736 42.1285 97.7292C43.3707 98.3848 44.3368 99.351 45.027 100.628C45.7171 101.904 46.0621 103.449 46.0621 105.26V115.172H41.8697V110.824H33.5882V115.172H29.4475V105.26C29.4475 103.449 29.7926 101.904 30.4827 100.628C31.1728 99.351 32.139 98.3848 33.3812 97.7292C34.6234 97.0736 36.0813 96.7458 37.7548 96.7458ZM41.8697 107.46V104.872C41.8697 103.371 41.4987 102.241 40.7568 101.482C40.015 100.705 39.0057 100.317 37.729 100.317C36.435 100.317 35.4171 100.705 34.6752 101.482C33.9506 102.241 33.5882 103.371 33.5882 104.872V107.46H41.8697Z" fill="#9BA4AF"/>
<path d="M57.8347 96.8752C60.3708 96.8752 62.3463 97.4963 63.7611 98.7385C65.1931 99.9807 65.9091 101.723 65.9091 103.966C65.9091 106.088 65.2621 107.753 63.9681 108.961C62.6914 110.169 60.8971 110.772 58.5852 110.772C57.826 110.772 57.0842 110.695 56.3595 110.54C55.6522 110.384 54.8844 110.125 54.0563 109.763V115.172H49.9155V104.458C49.9155 102.025 50.5884 100.153 51.9341 98.842C53.2971 97.5308 55.264 96.8752 57.8347 96.8752ZM57.8605 107.615C59.0855 107.615 60.0258 107.305 60.6814 106.683C61.3543 106.062 61.6907 105.182 61.6907 104.044C61.6907 102.888 61.3543 101.991 60.6814 101.352C60.0258 100.714 59.1114 100.395 57.9382 100.395C56.7132 100.395 55.7557 100.748 55.0656 101.456C54.3927 102.163 54.0563 103.155 54.0563 104.432V106.451C54.5738 106.813 55.1604 107.098 55.8161 107.305C56.4889 107.512 57.1704 107.615 57.8605 107.615Z" fill="#9BA4AF"/>
<path d="M84.8753 97.0563V115.172H80.8122V112.972C79.57 114.646 77.7411 115.482 75.3257 115.482C73.1864 115.482 71.5128 114.81 70.3051 113.464C69.1147 112.101 68.5194 110.169 68.5194 107.667V97.0563H72.7119V107.537C72.7119 108.987 73.0483 110.082 73.7212 110.824C74.4113 111.549 75.343 111.911 76.5162 111.911C77.7757 111.911 78.785 111.523 79.5441 110.747C80.3032 109.953 80.6828 108.788 80.6828 107.253V97.0563H84.8753Z" fill="#9BA4AF"/>
<path d="M97.3231 96.7458C98.9966 96.7458 100.454 97.0736 101.697 97.7292C102.939 98.3848 103.905 99.351 104.595 100.628C105.285 101.904 105.63 103.449 105.63 105.26V115.172H101.438V110.824H93.1565V115.172H89.0158V105.26C89.0158 103.449 89.3608 101.904 90.0509 100.628C90.7411 99.351 91.7072 98.3848 92.9494 97.7292C94.1917 97.0736 95.6495 96.7458 97.3231 96.7458ZM101.438 107.46V104.872C101.438 103.371 101.067 102.241 100.325 101.482C99.5832 100.705 98.5739 100.317 97.2972 100.317C96.0032 100.317 94.9853 100.705 94.2434 101.482C93.5188 102.241 93.1565 103.371 93.1565 104.872V107.46H101.438Z" fill="#9BA4AF"/>
<path d="M123.232 102.129C121.679 101.232 120.014 100.654 118.237 100.395V115.172H114.045V100.395C112.268 100.654 110.594 101.232 109.024 102.129L107.601 98.9973C108.843 98.2554 110.189 97.6947 111.638 97.3151C113.087 96.9355 114.579 96.7458 116.115 96.7458C117.668 96.7458 119.169 96.9355 120.618 97.3151C122.084 97.6947 123.43 98.2554 124.655 98.9973L123.232 102.129Z" fill="#9BA4AF"/>
<path d="M158.664 96.8752C161.201 96.8752 163.176 97.4963 164.591 98.7385C166.023 99.9807 166.739 101.723 166.739 103.966C166.739 106.088 166.092 107.753 164.798 108.961C163.521 110.169 161.727 110.772 159.415 110.772C158.656 110.772 157.914 110.695 157.189 110.54C156.482 110.384 155.714 110.125 154.886 109.763V115.172H150.745V104.458C150.745 102.025 151.418 100.153 152.764 98.842C154.127 97.5308 156.094 96.8752 158.664 96.8752ZM158.69 107.615C159.915 107.615 160.856 107.305 161.511 106.683C162.184 106.062 162.52 105.182 162.52 104.044C162.52 102.888 162.184 101.991 161.511 101.352C160.856 100.714 159.941 100.395 158.768 100.395C157.543 100.395 156.585 100.748 155.895 101.456C155.222 102.163 154.886 103.155 154.886 104.432V106.451C155.404 106.813 155.99 107.098 156.646 107.305C157.319 107.512 158 107.615 158.69 107.615Z" fill="#9BA4AF"/>
<path d="M178.15 102.517C180.324 102.517 182.041 103.078 183.3 104.199C184.577 105.32 185.215 106.891 185.215 108.909C185.215 111.014 184.508 112.644 183.093 113.8C181.678 114.956 179.668 115.534 177.063 115.534C174.492 115.534 172.543 114.956 171.214 113.8C169.886 112.644 169.222 110.945 169.222 108.702V97.0563H173.362V103.578C175.001 102.871 176.597 102.517 178.15 102.517ZM191.633 97.0563V115.172H187.493V97.0563H191.633ZM177.244 112.273C178.435 112.273 179.358 111.989 180.013 111.419C180.669 110.85 180.997 110.056 180.997 109.038C180.997 107.986 180.643 107.175 179.936 106.606C179.246 106.019 178.323 105.726 177.167 105.726C176.528 105.726 175.873 105.829 175.2 106.036C174.527 106.226 173.914 106.502 173.362 106.865V108.599C173.362 109.772 173.699 110.678 174.372 111.316C175.045 111.954 176.002 112.273 177.244 112.273Z" fill="#9BA4AF"/>
<path d="M39.1369 56.1254C42.3977 56.1254 45.3324 56.8552 47.9411 58.3148C50.5808 59.7744 52.646 61.793 54.1366 64.3706C55.6273 66.9171 56.3726 69.7897 56.3726 72.9884C56.3726 76.1871 55.6273 79.0753 54.1366 81.6529C52.646 84.1994 50.5808 86.2025 47.9411 87.6621C45.3324 89.1217 42.3977 89.8515 39.1369 89.8515C36.2177 89.8515 33.5469 89.2769 31.1246 88.1279C28.7023 86.9478 26.6992 85.3174 25.1154 83.2367C23.5626 81.1249 22.5688 78.7181 22.1341 76.0163H17.8484V89.2925H10.3486V56.6844H17.8484V69.4947H22.2272C22.7241 66.886 23.749 64.5724 25.3017 62.5538C26.8855 60.5042 28.8731 58.9203 31.2643 57.8024C33.6556 56.6844 36.2798 56.1254 39.1369 56.1254ZM39.1369 83.423C40.9381 83.423 42.5685 82.9882 44.0281 82.1187C45.4877 81.2491 46.6367 80.0224 47.4752 78.4386C48.3137 76.8548 48.733 75.0381 48.733 72.9884C48.733 70.9388 48.3137 69.122 47.4752 67.5382C46.6367 65.9544 45.4877 64.7277 44.0281 63.8581C42.5685 62.9886 40.9381 62.5538 39.1369 62.5538C37.3357 62.5538 35.7053 62.9886 34.2457 63.8581C32.7861 64.7277 31.637 65.9544 30.7985 67.5382C29.96 69.122 29.5408 70.9388 29.5408 72.9884C29.5408 75.0381 29.96 76.8548 30.7985 78.4386C31.637 80.0224 32.7861 81.2491 34.2457 82.1187C35.7053 82.9882 37.3357 83.423 39.1369 83.423Z" fill="black"/>
<path d="M87.9679 56.6844V89.2925H80.4214V75.9231H65.608V89.2925H58.0616V56.6844H65.608V69.5413H80.4214V56.6844H87.9679Z" fill="black"/>
<path d="M120.92 56.6844V89.2925H113.606V85.3329C111.37 88.3453 108.079 89.8515 103.731 89.8515C99.8799 89.8515 96.8675 88.6403 94.6937 86.218C92.5508 83.7646 91.4794 80.2864 91.4794 75.7834V56.6844H99.0259V75.5505C99.0259 78.1591 99.6315 80.1311 100.843 81.4665C102.085 82.7708 103.762 83.423 105.874 83.423C108.141 83.423 109.957 82.7243 111.324 81.3268C112.69 79.8982 113.373 77.802 113.373 75.0381V56.6844H120.92Z" fill="black"/>
<path d="M191.651 56.6844V89.2925H184.105V75.9231H169.292V89.2925H161.745V56.6844H169.292V69.5413H184.105V56.6844H191.651Z" fill="black"/>
<path fill-rule="evenodd" clip-rule="evenodd" d="M141.792 85.4106C148.224 85.4106 153.438 80.1966 153.438 73.7648C153.438 67.333 148.224 62.1191 141.792 62.1191C135.36 62.1191 130.146 67.333 130.146 73.7648C130.146 80.1966 135.36 85.4106 141.792 85.4106ZM141.792 91.8804C151.797 91.8804 159.908 83.7698 159.908 73.7648C159.908 63.7598 151.797 55.6492 141.792 55.6492C131.787 55.6492 123.677 63.7598 123.677 73.7648C123.677 83.7698 131.787 91.8804 141.792 91.8804Z" fill="#3E5ABE"/>
<path fill-rule="evenodd" clip-rule="evenodd" d="M136.336 109.609C138.433 109.609 140.132 107.91 140.132 105.813C140.132 103.716 138.433 102.017 136.336 102.017C134.24 102.017 132.54 103.716 132.54 105.813C132.54 107.91 134.24 109.609 136.336 109.609ZM136.336 115.032C141.428 115.032 145.555 110.905 145.555 105.813C145.555 100.721 141.428 96.5938 136.336 96.5938C131.245 96.5938 127.117 100.721 127.117 105.813C127.117 110.905 131.245 115.032 136.336 115.032Z" fill="#3E5ABE"/>
<path fill-rule="evenodd" clip-rule="evenodd" d="M127.661 74.335L131.283 106.871L127.404 107.036L123.783 74.5L127.661 74.335ZM158.33 81.0766L144.83 109.077L141.283 107.5L154.783 79.5L158.33 81.0766Z" fill="#3E5ABE"/>
<g opacity="0.5">
<path d="M38.7597 39.5925L37.6 41.1478L42.1716 48.0815H48.7961L44.3655 41.3619C47.1274 37.8243 50.0146 34.7013 53.1625 31.7753L64.1155 37.8435L73.217 32.2276L72.5028 19.8631C76.4479 18.4161 80.6208 17.1794 84.8965 16.3507L91.7293 27.618L93.4674 27.3534C96.2679 27.1061 98.7517 26.899 100.921 27.0961L102.806 27.2674L108.46 15.8806C113.004 16.4468 117.251 17.5354 121.346 18.9461L121.78 31.7723L131.217 37.5423L141.873 30.6786C145.565 33.539 148.819 36.5244 151.871 39.7823L148.612 48.0815H154.554L158.277 38.6013L157.13 37.3306C153.1 32.8665 148.766 28.8806 143.649 25.0855L142.113 23.9457L131.141 31.0131L127.207 28.6078L126.746 15.0245L125.004 14.3806C119.485 12.3408 113.604 10.7632 107.09 10.1713L105.205 10L99.4993 21.4915C97.8745 21.4678 96.2099 21.5729 94.6107 21.7037L87.672 10.2618L85.8274 10.5656C79.7568 11.5654 73.921 13.3519 68.6203 15.4195L66.7486 16.1495L67.5055 29.2532L63.9652 31.4377L52.3958 25.028L50.9318 26.3296C46.484 30.2841 42.5209 34.548 38.7597 39.5925Z" fill="#9BA4AF"/>
<path d="M150.846 121.866H157.47L162.076 128.852L160.916 130.408C157.155 135.452 153.192 139.716 148.744 143.67L147.28 144.972L135.711 138.562L132.17 140.747L132.927 153.851L131.056 154.581C125.755 156.648 119.919 158.435 113.848 159.434L112.004 159.738L105.065 148.296C103.466 148.427 101.801 148.532 100.177 148.508L94.471 160L92.5858 159.829C86.072 159.237 80.1909 157.659 74.6718 155.619L72.9297 154.976L72.4691 141.392L68.5352 138.987L57.563 146.054L56.0265 144.915C50.9102 141.119 46.5759 137.134 42.5459 132.669L41.2848 131.272L45.9549 121.866H52.1295L47.9213 130.342C50.9403 133.552 54.1579 136.497 57.8027 139.321L68.4586 132.458L77.8954 138.228L78.3304 151.054C82.4252 152.465 86.6717 153.553 91.2161 154.119L96.8697 142.733L98.7549 142.904C100.947 143.103 103.459 142.89 106.295 142.639L108.011 142.487L114.779 153.649C119.055 152.821 123.228 151.584 127.173 150.137L126.459 137.772L135.56 132.157L146.513 138.225C149.661 135.299 152.549 132.176 155.31 128.638L150.846 121.866Z" fill="#9BA4AF"/>
</g>
</svg>
