<svg width="774" height="773" fill="none" xmlns="http://www.w3.org/2000/svg"><path d="M580.668 579.918a33.689 33.689 0 0 1 37.186-7.058l87.159 37.81 37.859-60.16-79.588-57.302a33.454 33.454 0 0 1-12.06-15.829 33.402 33.402 0 0 1-.926-19.868 33.436 33.436 0 0 1 10.534-16.88 33.504 33.504 0 0 1 18.269-7.919L774 421.957v-70.914l-93.89-10.419a33.674 33.674 0 0 1-18.189-7.848 33.601 33.601 0 0 1-10.615-16.711 33.558 33.558 0 0 1 .641-19.778 33.605 33.605 0 0 1 11.674-15.99l76.39-56.295-35.671-61.504-86.318 37.642a33.687 33.687 0 0 1-37.329-6.942 33.592 33.592 0 0 1-9.309-17.532 33.565 33.565 0 0 1 2.217-19.722l37.522-86.542-61.415-35.29-56.367 75.956a33.647 33.647 0 0 1-15.973 11.663 33.692 33.692 0 0 1-19.774.681 33.656 33.656 0 0 1-16.74-10.535 33.585 33.585 0 0 1-7.919-18.109L422.503 0h-72.857l-10.432 93.096a33.119 33.119 0 0 1-7.293 17.563 33.18 33.18 0 0 1-15.759 10.668 32.82 32.82 0 0 1-17.607.926 32.791 32.791 0 0 1-15.54-8.32c-.546-.4-1.053-.85-1.515-1.344a27.255 27.255 0 0 1-3.197-3.697l-55.526-75.115-61.078 35.289 37.354 85.534a33.571 33.571 0 0 1-7.087 37.118 33.686 33.686 0 0 1-37.166 7.077l-85.813-37.137-35.167 61 75.886 55.79c.505.504 2.187 2.017 2.861 2.521.673.504.841 1.008 1.346 1.512a32.613 32.613 0 0 1 7.571 33.273 33.115 33.115 0 0 1-10.61 15.697 33.192 33.192 0 0 1-17.49 7.325L0 349.194v72.595l93.89 10.587a33.674 33.674 0 0 1 18.189 7.848 33.601 33.601 0 0 1 10.615 16.711 33.558 33.558 0 0 1-.641 19.778 33.605 33.605 0 0 1-11.674 15.99l-76.39 56.295 35.671 61.504 86.318-37.642a33.687 33.687 0 0 1 37.329 6.942 33.592 33.592 0 0 1 9.309 17.532 33.565 33.565 0 0 1-2.217 19.722l-37.522 86.542 61.415 35.289 56.367-75.955a33.536 33.536 0 0 1 11.842-9.999 33.59 33.59 0 0 1 15.08-3.613 32.528 32.528 0 0 1 8.918 1.176 33.447 33.447 0 0 1 16.744 10.564 33.371 33.371 0 0 1 7.822 18.172L351.497 773h70.838l10.6-93.768a33.591 33.591 0 0 1 7.859-18.167 33.684 33.684 0 0 1 52.547 1.698l56.367 76.292 61.584-35.625-37.691-86.206a33.699 33.699 0 0 1-2.218-19.74 33.724 33.724 0 0 1 9.285-17.566ZM387 604.957a218.944 218.944 0 0 1-121.525-36.817 218.524 218.524 0 0 1-80.564-98.04 218.204 218.204 0 0 1-12.447-126.219 218.372 218.372 0 0 1 59.864-111.853 218.823 218.823 0 0 1 111.998-59.787 219 219 0 0 1 126.382 12.432 218.674 218.674 0 0 1 98.167 80.459A218.258 218.258 0 0 1 605.739 386.5c-.067 57.918-23.134 113.444-64.141 154.398-41.007 40.955-96.605 63.992-154.598 64.059Z" fill="#fff"/></svg>