<svg width="61" height="61" fill="none" xmlns="http://www.w3.org/2000/svg"><path d="m7.843 10.145 2.302-2.302-1.744-3.5-4.697-1.884-1.245 1.245L4.343 8.4l3.5 1.744ZM26.657 30.674l-6.9 6.897a12.857 12.857 0 0 0 3.008 3.007l6.97-6.97-3.078-2.934ZM33.613 29.73l6.965-6.965a12.861 12.861 0 0 0-3.007-3.007L30.69 26.64l2.924 3.09ZM34.89 34.267 21.74 20.572a12.94 12.94 0 0 0-1.17 1.17L34.267 34.89l.623-.623ZM39.53 35.187l-.568-1.703-5.478 5.478 1.703.569a1.162 1.162 0 0 1 .76.82l.27 1.082a12.876 12.876 0 0 0 5.216-5.219l-1.081-.27a1.163 1.163 0 0 1-.821-.758Z" fill="#9BA4AF"/><path d="M43.551 43.551a2.324 2.324 0 0 1 2.57-.488l6.023 2.616 2.617-4.162-5.5-3.965a2.314 2.314 0 0 1 1.093-4.186l6.558-.745v-4.906l-6.489-.721a2.325 2.325 0 0 1-1.14-4.175l5.28-3.895-2.465-4.256-5.965 2.605a2.326 2.326 0 0 1-3.07-3.058l2.593-5.988-4.244-2.442-3.895 5.256a2.325 2.325 0 0 1-4.175-1.128l-.72-6.489h-5.035l-.721 6.442a2.293 2.293 0 0 1-1.593 1.954 2.266 2.266 0 0 1-2.29-.512 1.888 1.888 0 0 1-.326-.349L18.82 5.762l-4.221 2.441 2.581 5.919a2.326 2.326 0 0 1-3.058 3.058l-5.93-2.57-2.43 4.221 5.244 3.86c.035.035.15.14.197.175.047.035.059.07.093.105a2.259 2.259 0 0 1 .524 2.302 2.293 2.293 0 0 1-1.942 1.593l-6.454.72v5.024l6.489.732a2.326 2.326 0 0 1 1.14 4.175l-5.28 3.895 2.465 4.256 5.965-2.605a2.326 2.326 0 0 1 3.07 3.058L14.68 52.11l4.244 2.442 3.895-5.256a2.318 2.318 0 0 1 2.477-.86 2.31 2.31 0 0 1 1.698 1.988l.72 6.489h4.896l.732-6.489a2.326 2.326 0 0 1 4.175-1.14l3.895 5.28 4.256-2.465-2.605-5.965a2.335 2.335 0 0 1 .488-2.582Zm-13.383 1.733a15.116 15.116 0 1 1 15.116-15.116 15.133 15.133 0 0 1-15.116 15.116Z" fill="#3E5ABE"/><path d="m12.134 13.785 2.906 1.267-1.267-2.93-2.232-2.372-1.791 1.79 2.384 2.245ZM54.005 54.005a1.15 1.15 0 0 0 0-1.651l-5.919-5.896-2.883-1.255 1.255 2.906 5.907 5.896a1.135 1.135 0 0 0 1.64 0Z" fill="#9BA4AF"/><path d="M53.97 47.098c-.29.376-.688.655-1.14.802l2.826 2.814a3.488 3.488 0 0 1-2.465 5.953 3.476 3.476 0 0 1-2.465-1.011l-2.849-2.837c-.148.442-.423.83-.79 1.116l3.604 3.337a4.651 4.651 0 0 0 7.965-3.267 4.578 4.578 0 0 0-1.349-3.28l-3.337-3.627ZM12.552 51.156l2.582-5.953-5.977 2.592a2.319 2.319 0 0 1-2.942-.976l-1.128-1.965a7.219 7.219 0 0 0-2.872 1.767 7.128 7.128 0 0 0-1.767 6.977l3.314-3.326a1.172 1.172 0 0 1 1.65 0l4.652 4.651a1.172 1.172 0 0 1 0 1.651l-3.326 3.314a7.102 7.102 0 0 0 8.744-4.64l-1.976-1.127a2.326 2.326 0 0 1-.954-2.965ZM47.784 9.18l-2.581 5.954 5.976-2.594a2.319 2.319 0 0 1 2.942.977l1.128 1.965a7.22 7.22 0 0 0 2.872-1.767 7.128 7.128 0 0 0 1.767-6.977l-3.314 3.326a1.172 1.172 0 0 1-1.65 0l-4.652-4.651a1.172 1.172 0 0 1 0-1.651L53.598.448a7.128 7.128 0 0 0-6.977 1.767 7.219 7.219 0 0 0-1.767 2.872l1.977 1.128a2.326 2.326 0 0 1 .953 2.965Z" fill="#9BA4AF"/></svg>