<svg width="101" height="100" fill="none" xmlns="http://www.w3.org/2000/svg"><rect x=".5" width="100" height="100" rx="50" fill="#EBEDEF"/><path d="M68.102 35.156a2.25 2.25 0 1 0 0-4.5 2.25 2.25 0 0 0 0 4.5ZM46.563 64.797l-.985-.985c.154-.295.282-.604.383-.921h1.398a.781.781 0 0 0 .782-.782v-2.273a.781.781 0 0 0-.782-.781h-1.398a5.607 5.607 0 0 0-.383-.922l.985-.992a.781.781 0 0 0 0-1.102l-1.602-1.563a.782.782 0 0 0-1.102 0l-.992.985a5.601 5.601 0 0 0-.921-.383V53.64a.781.781 0 0 0-.782-.78h-2.273a.781.781 0 0 0-.782.78v1.399c-.317.101-.626.23-.921.383-.368-.305-1.055-1.281-1.563-1.219a.781.781 0 0 0-.547.234L33.468 56a.781.781 0 0 0 0 1.101l.985.993c-.151.296-.28.605-.383.922h-1.367a.781.781 0 0 0-.781.78v2.313a.781.781 0 0 0 .781.782h1.39c.106.316.233.624.384.921-.305.368-1.274 1.055-1.211 1.563 0 .205.082.401.226.547l1.61 1.61a.78.78 0 0 0 1.101 0l.985-.985c.297.15.605.278.921.383v1.39a.781.781 0 0 0 .782.781h2.273a.78.78 0 0 0 .782-.78v-1.415c.316-.103.625-.231.921-.383l.992.985a.781.781 0 0 0 1.102 0l1.602-1.61a.781.781 0 0 0 0-1.101Zm-6.532-1.563a2.25 2.25 0 0 1 0-4.5 2.25 2.25 0 0 1 .032 4.485l-.032.015Z" fill="#F26600"/><path d="M72.68 36.039c3.593-5.406-3.29-11.516-8.22-7.32l-9.335 6.773a.197.197 0 0 0-.078.063l-4.64 3.367a.172.172 0 0 0-.102.07c-.04.07-17.086 12.375-17.11 12.438a11.719 11.719 0 0 0-4.914 9.507c0 10.157 12.282 15.532 19.657 8.665 0 0 .046 0 .054-.047a11.82 11.82 0 0 0 2.649-3.594l16.078-21.875a.211.211 0 0 0 .101-.14s5.86-7.891 5.86-7.907Zm-.586-3.125c-.164 5.266-7.813 5.266-7.977 0 .164-5.29 7.813-5.29 7.977-.016v.016Zm-42.25 28.023a10.203 10.203 0 0 1 10.218-10.156c7.243-.172 12.407 7.906 9.266 14.39l-2.477 3.376c-6.406 5.875-17.078 1.164-17.007-7.61ZM40.062 49.22c-.414 0-.83.023-1.242.07l2.39-1.742c.415.523.9 1.633 1.735 1.062.836-.57-.101-1.422-.468-1.976l3.554-2.586c.422.531.875 1.562 1.711 1.031a.782.782 0 0 0 .133-1.094l-.625-.851 3.375-2.453c.406.523.883 1.562 1.695 1.007a.782.782 0 0 0 .18-1.093l-.61-.828 3.47-2.524c.406.531.874 1.563 1.695 1.016a.782.782 0 0 0 .172-1.094l-.61-.836 3.414-2.477c.414.524.89 1.563 1.719 1.032a.782.782 0 0 0 .188-1.086l-.626-.867 1.32-.961a5.562 5.562 0 0 0 6.4 6.39l-3.063 4.157-.781-.61a.784.784 0 1 0-.938 1.258l.813.586-2.54 3.453c-.547-.383-1.312-1.25-1.937-.469a.781.781 0 0 0 .164 1.094l.852.633-2.477 3.36c-.547-.384-1.313-1.25-1.938-.47a.782.782 0 0 0 .165 1.094l.836.68-2.61 3.516-.836-.625a.782.782 0 1 0-.93 1.257l.844.625-2.922 3.97a11.719 11.719 0 0 0-11.672-12.65Z" fill="#F26600"/></svg>