<svg width="101" height="100" fill="none" xmlns="http://www.w3.org/2000/svg"><rect x=".5" width="100" height="100" rx="50" fill="#EBEDEF"/><path d="M68.969 30.469c-1.79 0-3.469.89-4.485 2.343H62.72v-.78a2.35 2.35 0 0 0-2.344-2.344c-.594 0-1.148.226-1.563.601a2.331 2.331 0 0 0-3.124 0 2.331 2.331 0 0 0-3.126 0A2.331 2.331 0 0 0 51 29.687a2.35 2.35 0 0 0-2.344 2.344v.54c-.726-.532-1.57-.688-2.36-.4-.366.134-.687.36-.944.642H41.57a5.479 5.479 0 0 0-5.414-4.688h-3.125a5.475 5.475 0 0 0-5.468 5.469c0 .43.351.781.78.781h7.032V37.5h-7.031a.784.784 0 0 0-.782.781 5.475 5.475 0 0 0 5.47 5.469h3.124c2.75 0 5.032-2.04 5.414-4.688h3.18v.782c0 .125.031.242.086.351l.46.914-.562-.554a.778.778 0 0 0-1.101 0l-4.422 4.414a.787.787 0 0 0 0 1.11l2.031 2.038a14.592 14.592 0 0 0-1.43 3.446h-2.874a.784.784 0 0 0-.782.78v3.907h-2.218a.784.784 0 0 0-.782.781v1.516a8.446 8.446 0 0 0-.765.445l-1.313-.758a.753.753 0 0 0-.594-.078.782.782 0 0 0-.476.36l-2.344 4.062a.778.778 0 0 0 .29 1.063l1.312.765c-.008.149-.016.297-.016.438 0 .14.008.289.016.437l-1.313.766a.778.778 0 0 0-.289 1.062l2.344 4.063c.11.18.281.312.476.36a.752.752 0 0 0 .594-.079l1.313-.758c.25.164.507.313.765.446v1.515c0 .43.352.781.782.781h4.687c.43 0 .781-.351.781-.78V71.14c.266-.133.516-.282.766-.446l1.312.758c.18.11.391.133.594.078a.782.782 0 0 0 .477-.36l.68-1.187.398.399a.778.778 0 0 0 1.101 0l2.032-2.031a15.128 15.128 0 0 0 3.453 1.43v2.874c0 .43.351.781.781.781h6.25c.43 0 .781-.351.781-.78V69.78a15.13 15.13 0 0 0 3.453-1.43l2.032 2.032a.778.778 0 0 0 1.101 0l4.422-4.414a.787.787 0 0 0 0-1.11l-2.031-2.039a14.592 14.592 0 0 0 1.43-3.445h2.874c.43 0 .782-.352.782-.781v-6.25a.784.784 0 0 0-.781-.782h-2.876a14.592 14.592 0 0 0-1.43-3.445l2.032-2.039a.787.787 0 0 0 0-1.11l-4.422-4.413a.778.778 0 0 0-1.101 0l-.805.804c.008-.062.008-.132.008-.195v-2.102h1.765a5.493 5.493 0 0 0 4.485 2.344 5.475 5.475 0 0 0 5.469-5.468 5.475 5.475 0 0 0-5.47-5.47Zm0 4.687c.43 0 .781.352.781.782 0 .43-.352.78-.781.78a.784.784 0 0 1-.781-.78c0-.43.351-.782.78-.782Zm-8.594-3.906c.43 0 .781.352.781.781V37.5c0 .43-.351.781-.781.781a.783.783 0 0 1-.781-.781v-5.469c0-.43.351-.781.781-.781Zm-3.125 0c.43 0 .781.352.781.781V37.5c0 .43-.351.781-.781.781a.783.783 0 0 1-.781-.781v-5.469c0-.43.351-.781.781-.781Zm-3.125 0c.43 0 .781.352.781.781V37.5c0 .43-.351.781-.781.781a.783.783 0 0 1-.781-.781v-5.469c0-.43.351-.781.781-.781Zm-3.906.781c0-.43.351-.781.781-.781.43 0 .781.352.781.781V37.5c0 .43-.351.781-.781.781a.783.783 0 0 1-.781-.781v-5.469Zm-3.907 2.344c0-.328.212-.625.516-.734.406-.149.875.054 1.29.554.343.422.538.977.538 1.578v3.29c0 .43.352.78.782.78a3.124 3.124 0 0 1 3.124 3.126v3.125c0 .43.352.781.782.781.43 0 .781-.352.781-.781v-3.125c0-1.453-.664-2.75-1.703-3.61.047-.03.094-.078.14-.117a2.332 2.332 0 0 0 3.126 0 2.332 2.332 0 0 0 3.124 0c.415.375.97.602 1.563.602.273 0 .54-.047.781-.14v1.46c0 1.461-.57 2.828-1.601 3.86l-.516.515a.807.807 0 0 0-.227.555V61.71a7.761 7.761 0 0 1-4.687 1.57 7.761 7.761 0 0 1-4.688-1.57V46.094a.779.779 0 0 0-.085-.352l-3.04-6.086v-5.281Zm1.852 28.328Zm-1.852-7.234a7.75 7.75 0 0 1 1.563-4.68v9.36a7.731 7.731 0 0 1-1.563-4.68Zm13.86 7.156Zm.203-11.836a7.75 7.75 0 0 1 1.563 4.68 7.731 7.731 0 0 1-1.563 4.68v-9.36ZM41.586 69.711l-1.07-.617a.778.778 0 0 0-.875.054c-.407.32-.844.579-1.305.766a.778.778 0 0 0-.492.719v1.242h-3.125v-1.242a.783.783 0 0 0-.485-.719 5.287 5.287 0 0 1-1.312-.766.778.778 0 0 0-.875-.054l-1.07.617-1.563-2.703 1.078-.625a.788.788 0 0 0 .383-.781 4.688 4.688 0 0 1 0-1.516.788.788 0 0 0-.383-.781l-1.078-.625 1.563-2.703 1.07.617c.281.164.625.14.875-.055a5.29 5.29 0 0 1 1.312-.766.783.783 0 0 0 .485-.718v-1.242h1.437v.78c0 .43.352.782.782.782h2.874c.329 1.203.805 2.36 1.43 3.445L39.4 64.672a3.124 3.124 0 1 0-3.117 3.297 3.11 3.11 0 0 0 2.913-2.016l.016.016 2.883 2.875-.508.867Zm-3.742-4.867c0 .86-.703 1.562-1.563 1.562s-1.562-.703-1.562-1.562c0-.86.703-1.563 1.562-1.563.86 0 1.563.703 1.563 1.563Z" fill="#F26600"/></svg>