<svg width="101" height="100" fill="none" xmlns="http://www.w3.org/2000/svg"><rect x=".5" width="100" height="100" rx="50" fill="#EBEDEF"/><path d="M21 68h60" stroke="#F26600" stroke-width="2" stroke-miterlimit="10"/><path d="M40 49V38H27.64L23 48.22V50h3v2h-3v3h17v-6Zm-2 4h-2v-3h2v3Zm0-6.5a1.5 1.5 0 0 1-1.5 1.5h-8.74a1.5 1.5 0 0 1-1.38-2.09l2.57-6a1.5 1.5 0 0 1 1.38-.91h6.17a1.5 1.5 0 0 1 1.5 1.5v6ZM34 63a1 1 0 1 0 0-2 1 1 0 0 0 0 2Z" fill="#F26600"/><path d="M28.52 46H36v-5h-5.34l-2.14 5ZM50 49.56V49a4 4 0 0 0-4-4h-.41A4 4 0 0 0 42 49v6h8v-5.44ZM46 52a3 3 0 1 1 0-5.999A3 3 0 0 1 46 52Z" fill="#F26600"/><path d="M46 50a1 1 0 1 0 0-2 1 1 0 0 0 0 2ZM48.36 43.48l.18.09.42.22.2.12.39.27.17.12c.377.286.714.623 1 1l.13.18c.09.13.18.25.26.39l.12.21c.08.14.15.27.21.41l.09.19c.088.202.165.41.23.62l16.07-18.6-1.53-1.53-18.57 16.08c.214.065.424.142.63.23ZM23 57v4h4.08a7 7 0 0 1 2-4H23ZM68 57a4.999 4.999 0 1 0 0 9.998A4.999 4.999 0 0 0 68 57Zm0 8a3 3 0 1 1 0-5.999A3 3 0 0 1 68 65ZM72.89 57a7 7 0 0 1 2 4H79v-4h-6.11Z" fill="#F26600"/><path d="M68 63a1 1 0 1 0 0-2 1 1 0 0 0 0 2ZM52 57H38.89a7 7 0 0 1 2 4h20.19a7 7 0 0 1 2-4H52ZM34 57a4.999 4.999 0 1 0 0 9.998A4.999 4.999 0 0 0 34 57Zm0 8a3 3 0 1 1 0-5.999A3 3 0 0 1 34 65ZM72 42a1 1 0 0 0-1 1 2 2 0 1 1-2-2 1 1 0 0 0 1-1v-9a1 1 0 0 0-2 0v8.14A4 4 0 1 0 73 43a1 1 0 0 0-1-1Z" fill="#F26600"/></svg>