<svg width="101" height="100" fill="none" xmlns="http://www.w3.org/2000/svg"><rect x=".5" width="100" height="100" rx="50" fill="#EBEDEF"/><path d="M49.42 42.154a1 1 0 0 0-1 1v6.47l-5.9 5.89a1.002 1.002 0 0 0 .325 1.639 1 1 0 0 0 1.095-.219l6.19-6.19a1 1 0 0 0 .29-.71v-6.88a1 1 0 0 0-1-1Z" fill="#F26600"/><path d="M76.07 72.824a12.34 12.34 0 0 0-8-8.79 6.81 6.81 0 0 0 .76-10.36c.241-1.199.369-2.417.38-3.64a19.84 19.84 0 1 0-15.78 19.37 12.58 12.58 0 0 0-1.36 3.33 1 1 0 0 0 .26 1 15.799 15.799 0 0 0 23.58-.06 1 1 0 0 0 .16-.85Zm-7.21-14.3a4.84 4.84 0 0 1-4.79 4.83 4.83 4.83 0 1 1 4.85-4.83h-.06Zm-18.44 9.25v-3.62a1 1 0 1 0-2 0v3.62a17.65 17.65 0 0 1-10.83-4.5l2.55-2.55a1.002 1.002 0 0 0 .057-1.467 1 1 0 0 0-1.467.057l-2.55 2.55a17.64 17.64 0 0 1-4.49-10.83h3.61a1 1 0 0 0 0-2h-3.61a17.64 17.64 0 0 1 4.49-10.83l2.55 2.55a1 1 0 0 0 1.41 0 1 1 0 0 0 0-1.41l-2.55-2.55a17.65 17.65 0 0 1 10.83-4.5v3.62a1 1 0 0 0 2 0v-3.62a17.69 17.69 0 0 1 10.83 4.49l-2.55 2.56a1 1 0 0 0 0 1.41 1 1 0 0 0 1.41 0l2.56-2.55a17.69 17.69 0 0 1 4.49 10.83h-3.62a1 1 0 1 0 0 2h3.61c0 .453-.04.903-.12 1.35a6.68 6.68 0 0 0-3-.69 6.82 6.82 0 0 0-3.96 12.34 12.242 12.242 0 0 0-4.47 2.7 17.49 17.49 0 0 1-5.18 1.04Z" fill="#F26600"/><path d="M46.53 70.164a1.002 1.002 0 1 0-1.42 1.41l1.73 1.73A23.46 23.46 0 0 1 26 50.034a1 1 0 0 0-2 0 25.46 25.46 0 0 0 23.07 25.32l-2 2a.997.997 0 0 0-.219 1.095c.05.121.125.232.219.325a1 1 0 0 0 1.42 0l3.46-3.47c.156-.11.278-.263.35-.44a1 1 0 0 0-.21-1.09l-3.56-3.61ZM48.71 26.314l3.58 3.57a1 1 0 1 0 1.42-1.41l-1.74-1.72a23.45 23.45 0 0 1 20.87 23.28 1 1 0 0 0 2 0 25.46 25.46 0 0 0-23.11-25.32l2-2a1.004 1.004 0 1 0-1.42-1.42l-3.59 3.61h-.06a1 1 0 0 0-.23.53 1.282 1.282 0 0 0 0 .19 1 1 0 0 0 .28.69Z" fill="#F26600"/></svg>